<svg width="29" height="18" viewBox="0 0 29 18" fill="none" xmlns="http://www.w3.org/2000/svg">
<path d="M10.739 2.32568H18.2613V15.8419H10.739V2.32568Z" fill="#FF5F00"/>
<path d="M11.2166 9.08396C11.2166 6.33773 12.5061 3.90194 14.4882 2.32584C13.0315 1.17959 11.1927 0.487061 9.18674 0.487061C4.43457 0.487061 0.589844 4.33178 0.589844 9.08396C0.589844 13.8361 4.43457 17.6809 9.18674 17.6809C11.1927 17.6809 13.0315 16.9883 14.4882 15.8421C12.5061 14.2899 11.2166 11.8302 11.2166 9.08396Z" fill="#EB001B"/>
<path d="M28.4103 9.08396C28.4103 13.8361 24.5656 17.6809 19.8134 17.6809C17.8074 17.6809 15.9687 16.9883 14.512 15.8421C16.5179 14.266 17.7836 11.8302 17.7836 9.08396C17.7836 6.33773 16.494 3.90194 14.512 2.32584C15.9687 1.17959 17.8074 0.487061 19.8134 0.487061C24.5656 0.487061 28.4103 4.35566 28.4103 9.08396Z" fill="#F79E1B"/>
</svg>
