<svg width="24" height="25" viewBox="0 0 24 25" fill="none" xmlns="http://www.w3.org/2000/svg">
<path fill-rule="evenodd" clip-rule="evenodd" d="M16.5332 17.3252C16.3194 17.3252 16.1412 17.3995 16.0315 17.5344C15.7506 17.8795 15.8768 18.4871 16.3071 18.8617C16.4948 19.0252 16.7653 19.123 17.0307 19.123C17.3011 19.123 17.5266 19.0219 17.6658 18.8386C17.9161 18.5043 17.7721 18.0304 17.2991 17.6317C17.0648 17.4342 16.7929 17.3252 16.5332 17.3252ZM18.8911 15.5909C18.6818 15.5299 18.5255 15.5753 18.4484 15.716C18.3315 15.9286 18.4178 16.3494 18.6535 16.7161C18.8924 17.0876 19.095 17.276 19.2563 17.276C19.3119 17.276 19.3617 17.2526 19.4004 17.2088C19.4901 17.1062 19.5197 16.8911 19.482 16.6191C19.4441 16.3411 19.2729 15.7694 18.8911 15.5909ZM23.5622 24.0164C23.7784 24.2834 23.4495 24.5545 23.2044 24.3379C20.7565 22.1768 18.6977 21.5647 16.6616 21.4799C15.5809 21.4349 14.5067 21.5381 13.3837 21.6371C13.1595 21.6567 12.9332 21.6763 12.7044 21.6944C12.6046 21.7024 12.5041 21.7099 12.4036 21.7174C12.0076 21.7598 11.6064 21.7825 11.1994 21.7825C9.28351 21.7825 7.47566 21.3145 5.82532 20.3911C4.16915 19.4652 2.85286 18.1718 1.9133 16.5468C0.97538 14.9254 0.500015 13.1337 0.500015 11.2214C0.500015 9.31114 0.974913 7.51188 1.91142 5.87371C2.84981 4.23306 4.15104 2.92688 5.77905 1.99173C7.40698 1.05716 9.1828 0.583252 11.0575 0.583252C13.0152 0.583252 14.8451 1.05141 16.4962 1.97485C18.1521 2.90087 19.4723 4.19813 20.4207 5.83115C21.3674 7.46218 21.8473 9.25854 21.8473 11.1703C21.8473 11.9084 21.7755 12.6291 21.6345 13.33C21.6164 13.4317 21.5902 13.555 21.5533 13.6986C21.5258 13.8136 21.4963 13.9283 21.4649 14.0421L21.4561 14.0372C21.2665 14.6424 20.9134 15.4989 20.2562 16.5987C20.1855 16.7143 20.1463 16.6262 20.1371 16.5615C19.9072 14.944 19.196 13.7157 17.9423 12.9223C17.9217 12.9093 17.9006 12.8967 17.8797 12.8841C17.6742 12.7581 17.4549 12.6436 17.2208 12.5405C16.922 12.4094 16.5997 12.2963 16.253 12.203C16.0405 12.146 15.5666 12.1705 15.7386 12.0006C15.8095 11.9307 16.8359 11.9146 18.0158 11.9891C18.0388 11.9905 18.0617 11.9919 18.0848 11.9934C18.1065 11.7469 18.1179 11.4941 18.1179 11.2348C18.1179 9.21647 17.4476 7.5708 16.0685 6.20412C14.6884 4.83657 13.0747 4.17153 11.135 4.17153C9.14877 4.17153 7.53823 4.83727 6.21156 6.20694C4.87781 7.58345 4.22958 9.2153 4.22958 11.1956C4.22958 13.1719 4.8961 14.7968 6.26745 16.1633C7.63874 17.53 9.23085 18.1945 11.135 18.1945C11.2264 18.1945 11.3166 18.1917 11.4068 18.1889C11.4047 18.1659 11.4031 18.143 11.4012 18.1203C11.2918 16.727 11.2686 15.5695 11.5558 16.0364C11.6573 16.2015 11.7583 16.3575 11.859 16.5076C12.2345 17.0671 12.6061 17.5275 12.9759 17.9093C12.9945 17.9284 13.0131 17.947 13.0319 17.9658C14.3855 19.3352 15.7179 19.672 17.1344 20.0185C17.1645 20.0261 17.1946 20.0335 17.2248 20.0407C17.4566 20.0977 17.6908 20.1553 17.9279 20.2185C19.6113 20.6663 21.4345 21.3882 23.5622 24.0164Z" fill="#FF8C00"/>
</svg>
