<svg width="12" height="15" viewBox="0 0 12 15" fill="none" xmlns="http://www.w3.org/2000/svg">
<path d="M5.98924 0C8.15541 0 9.89839 1.70456 9.89839 3.80894V4.8913C11.1142 5.27079 12 6.37139 12 7.68593V11.1708C12 12.7982 10.6508 14.1176 8.98745 14.1176H3.01327C1.34919 14.1176 0 12.7982 0 11.1708V7.68593C0 6.37139 0.886551 5.27079 2.10161 4.8913V3.80894C2.10879 1.70456 3.85176 0 5.98924 0ZM5.99641 8.03596C5.65212 8.03596 5.37239 8.30953 5.37239 8.64624V10.2035C5.37239 10.5472 5.65212 10.8208 5.99641 10.8208C6.34788 10.8208 6.62761 10.5472 6.62761 10.2035V8.64624C6.62761 8.30953 6.34788 8.03596 5.99641 8.03596ZM6.00359 1.22756C4.54752 1.22756 3.36402 2.37796 3.35684 3.79492V4.73909H8.64316V3.80894C8.64316 2.38497 7.45965 1.22756 6.00359 1.22756Z" fill="#00C04D"/>
</svg>
