<svg width="25" height="18" viewBox="0 0 25 18" fill="none" xmlns="http://www.w3.org/2000/svg">
<path fill-rule="evenodd" clip-rule="evenodd" d="M7.24756 8.87624C7.24756 3.98868 11.1801 0 16.1237 0C21.0113 0 25.0001 3.98868 25.0001 8.87624C25.0001 13.7638 21.0113 17.7526 16.1237 17.7526C11.2362 17.7526 7.24756 13.82 7.24756 8.87624ZM12.8092 8.87624C12.8092 10.674 14.3261 12.1908 16.1237 12.1908C17.9215 12.1908 19.3822 10.674 19.4383 8.87624C19.4383 7.07856 17.9215 5.56168 16.1237 5.56168C14.3261 5.56168 12.8092 7.07856 12.8092 8.87624ZM7.19087 15.5054V2.58424H0L4.04488 15.5054H7.19087Z" fill="#8B3FFD"/>
</svg>
